<svg width="109" height="109" viewBox="0 0 109 109" fill="none" xmlns="http://www.w3.org/2000/svg">
<path d="M51.2274 4.78H52.5924L52.3224 7.93H52.8474L53.1174 4.78H54.4974L54.2124 7.93H55.1124L55.0074 9.4H54.0924L53.9724 10.81H54.8724L54.7674 12.28H53.8374L53.5224 16H52.1724L52.4874 12.28H51.9474L51.6324 16H50.2824L50.5974 12.28H49.6824L49.8174 10.81H50.7174L50.8374 9.4H49.9224L50.0574 7.93H50.9574L51.2274 4.78ZM52.1874 9.4L52.0674 10.81H52.6074L52.7274 9.4H52.1874Z" fill="white"/>
<path d="M66.8083 6.20125L68.6125 6.85793L67.2479 10.6073C67.4102 10.4536 67.6482 10.3114 67.9618 10.1808C68.2754 10.0501 68.5778 10.0378 68.8691 10.1439L68.9537 10.1746C69.3014 10.3012 69.526 10.5319 69.6276 10.8669C69.7386 11.2052 69.7273 11.5577 69.594 11.9241L67.8599 16.6884C67.7026 17.1206 67.4244 17.461 67.0253 17.7095C66.6357 17.9614 66.2435 18.0156 65.8488 17.8719L65.8206 17.8617C65.5763 17.7727 65.3794 17.6266 65.23 17.4232C65.084 17.2104 64.9862 17.0259 64.9367 16.8695C64.9 16.7071 64.8586 16.4846 64.8126 16.2018C64.5023 16.6741 64.3181 16.9902 64.2599 17.1499L62.9914 16.6882L66.8083 6.20125ZM66.8426 11.7208L65.4984 15.4138C65.3787 15.7427 65.4316 15.9482 65.6571 16.0303C65.8827 16.1124 66.0519 15.9984 66.1647 15.6883L67.5191 11.9671C67.6388 11.6382 67.5812 11.431 67.3463 11.3455C67.1302 11.2668 66.9623 11.3919 66.8426 11.7208Z" fill="white"/>
<path d="M82.2071 16.8479L82.4829 17.0793C83.517 17.947 83.5938 18.9057 82.7132 19.9551L81.1801 21.7822L79.2152 20.1334L78.0871 21.4778C77.875 21.7306 77.8647 21.9374 78.0562 22.0981C78.2324 22.2459 78.4266 22.1934 78.6387 21.9406L79.41 21.0214L80.8234 22.2073L79.8785 23.3334C79.4864 23.8007 79.0387 24.0386 78.5355 24.0471C78.0323 24.0557 77.5547 23.8703 77.1027 23.4911L76.827 23.2597C76.352 22.8611 76.0789 22.4166 76.0076 21.9259C75.9439 21.4417 76.1081 20.966 76.5002 20.4987L79.3542 17.0975C79.7334 16.6455 80.1716 16.38 80.6687 16.3011C81.1734 16.2285 81.6862 16.4108 82.2071 16.8479ZM80.7676 18.2834L80.1408 19.0303L80.7384 19.5317L81.3651 18.7848C81.5965 18.509 81.6126 18.2876 81.4134 18.1204C81.2909 18.0176 81.1815 17.9846 81.0853 18.0214C80.9956 18.0505 80.8897 18.1379 80.7676 18.2834Z" fill="white"/>
<path d="M88.2708 32.1146L89.9725 31.1321C89.7399 30.9893 89.5492 30.9089 89.4003 30.8909C89.2104 30.862 89.0028 30.9126 88.7777 31.0426L87.9333 31.5301C87.6562 31.6901 87.5701 31.861 87.6751 32.0429C87.7951 32.2507 87.9937 32.2746 88.2708 32.1146ZM86.4132 30.2772L87.9331 29.3997C88.5913 29.0197 89.2076 28.9872 89.782 29.3022C89.925 29.3698 90.1837 29.5379 90.5583 29.8067C90.9415 30.0704 91.1722 30.2201 91.2505 30.2557C91.3338 30.3 91.4404 30.2846 91.5703 30.2096L91.9471 29.9921C92.0943 29.9071 92.1814 29.828 92.2083 29.7547C92.2353 29.6814 92.2188 29.5928 92.1588 29.4888L92.1288 29.4369C92.0188 29.2463 91.8382 29.2236 91.5871 29.3686L90.8986 29.7661L90.0436 28.2852L91.0049 27.7302C91.3859 27.5102 91.7807 27.4439 92.1891 27.5314C92.5976 27.6189 92.9768 27.9657 93.3268 28.572L93.4993 28.8707C93.8793 29.5289 94.0101 30.0654 93.8916 30.4802C93.7818 30.89 93.4801 31.2374 92.9865 31.5224L89.1283 33.7499C89.0504 33.7949 89.0059 33.8379 88.995 33.8789C88.989 33.9285 89.016 34.0053 89.076 34.1093L89.181 34.2911L87.7001 35.1461L86.8076 33.6003C86.6226 33.2798 86.7942 32.9671 87.3225 32.6621C86.5909 32.715 86.0776 32.486 85.7826 31.975L85.7526 31.923C85.5776 31.6199 85.5595 31.3186 85.6984 31.0191C85.8459 30.7145 86.0841 30.4672 86.4132 30.2772Z" fill="white"/>
<path d="M92.0979 46.4562L91.7645 44.5653C91.7193 44.3093 91.7697 44.077 91.9158 43.8685C92.0734 43.6681 92.2949 43.5427 92.5805 43.4923L97.7951 42.5728L97.6362 41.6717L99.3941 41.3618L99.553 42.2629L102.182 41.7992L102.513 43.6753L99.8838 44.1389L100.045 45.0548L98.2874 45.3648L98.1259 44.4489L94.0488 45.1678C93.9306 45.1886 93.8495 45.2182 93.8055 45.2564C93.7632 45.3045 93.7525 45.3876 93.7733 45.5058L93.8853 46.141L92.0979 46.4562Z" fill="white"/>
<path d="M93.139 57.3856L101.196 57.3897L100.867 59.251L96.3864 59.0092L100.683 60.2998L100.362 62.1168L91.1285 58.7675C90.3586 58.4692 90.024 58.0345 90.1247 57.4634L90.4268 55.7498L92.1847 56.0597L92.0467 56.8427C92.0258 56.9608 92.0424 57.0399 92.0962 57.0799C92.1385 57.128 92.2359 57.1807 92.3882 57.238L92.6932 57.3222C92.8572 57.3714 93.0058 57.3926 93.139 57.3856Z" fill="white"/>
<path d="M99.2887 76.1892L98.6062 77.3714L96.0132 75.5625L95.7507 76.0172L98.3437 77.826L97.6537 79.0211L95.0682 77.1993L94.6182 77.9787L93.3976 77.1528L93.8551 76.3604L92.694 75.5515L92.244 76.3309L91.0235 75.505L91.4885 74.6996L88.4244 72.5668L89.0994 71.3976L92.1635 73.5304L92.4335 73.0628L89.3694 70.93L90.0444 69.7608L93.1085 71.8936L93.566 71.1012L94.7715 71.9531L94.3215 72.7326L95.4826 73.5415L95.9401 72.7491L97.1457 73.601L96.6957 74.3804L99.2887 76.1892ZM94.8076 74.7106L93.6465 73.9017L93.3765 74.3693L94.5376 75.1783L94.8076 74.7106Z" fill="white"/>
<path d="M90.1596 89.2852L88.6888 90.5194L86.1241 87.4629C86.176 87.6804 86.1802 87.9575 86.1365 88.2944C86.0928 88.6313 85.9523 88.8994 85.7148 89.0987L85.6459 89.1565C85.3624 89.3943 85.0503 89.4735 84.7094 89.394C84.3609 89.3209 84.0613 89.135 83.8106 88.8362L80.5517 84.9524C80.256 84.6 80.1003 84.1889 80.0847 83.7191C80.0613 83.2556 80.2105 82.8889 80.5323 82.619L80.5552 82.5997C80.7544 82.4326 80.9794 82.3351 81.2303 82.3074C81.4876 82.2873 81.6963 82.2949 81.8565 82.3302C82.0154 82.3796 82.2288 82.4551 82.4968 82.5566C82.2428 82.0517 82.0612 81.7342 81.9519 81.6039L82.9861 80.7362L90.1596 89.2852ZM85.3624 86.5551L82.8362 83.5446C82.6113 83.2764 82.4068 83.2195 82.223 83.3738C82.0391 83.5281 82.0533 83.7316 82.2654 83.9844L84.8108 87.0179C85.0358 87.286 85.2441 87.3397 85.4356 87.179C85.6118 87.0312 85.5874 86.8232 85.3624 86.5551Z" fill="white"/>
<path d="M73.2404 97.2971L72.9021 97.4202C71.6335 97.882 70.7649 97.4691 70.2964 96.1818L69.4807 93.9406L71.891 93.0633L71.2907 91.4142C71.1779 91.1041 71.004 90.9918 70.769 91.0773C70.5529 91.1559 70.5013 91.3503 70.6142 91.6604L71.0246 92.788L69.2908 93.4191L68.7881 92.0377C68.5794 91.4645 68.5972 90.9579 68.8414 90.5178C69.0857 90.0777 69.485 89.7568 70.0394 89.555L70.3777 89.4319C70.9603 89.2198 71.4819 89.2056 71.9424 89.3891C72.3936 89.5761 72.7235 89.9562 72.9321 90.5294L74.4507 94.7016C74.6525 95.2561 74.6633 95.7683 74.4832 96.2382C74.2937 96.7116 73.8794 97.0645 73.2404 97.2971ZM72.717 95.3327L72.3835 94.4165L71.6505 94.6833L71.984 95.5995C72.1071 95.9377 72.2908 96.0624 72.5352 95.9735C72.6855 95.9188 72.7688 95.8406 72.785 95.7389C72.8046 95.6466 72.7819 95.5112 72.717 95.3327Z" fill="white"/>
<path d="M56.6948 94.9779V96.9429C56.9348 96.8129 57.0998 96.6879 57.1898 96.5679C57.3098 96.4179 57.3698 96.2129 57.3698 95.9529V94.9779C57.3698 94.6579 57.2648 94.4979 57.0548 94.4979C56.8148 94.4979 56.6948 94.6579 56.6948 94.9779ZM59.2148 94.2879V96.0429C59.2148 96.8029 58.9348 97.3529 58.3748 97.6929C58.2448 97.7829 57.9698 97.9229 57.5498 98.1129C57.1298 98.3129 56.8848 98.4379 56.8148 98.4879C56.7348 98.5379 56.6948 98.6379 56.6948 98.7879V99.2229C56.6948 99.3929 56.7198 99.5079 56.7698 99.5679C56.8198 99.6279 56.9048 99.6579 57.0248 99.6579H57.0848C57.3048 99.6579 57.4148 99.5129 57.4148 99.2229V98.4279H59.1248V99.5379C59.1248 99.9779 58.9848 100.353 58.7048 100.663C58.4248 100.973 57.9348 101.128 57.2348 101.128H56.8898C56.1298 101.128 55.5998 100.973 55.2998 100.663C54.9998 100.363 54.8498 99.9279 54.8498 99.3579V94.9029C54.8498 94.8129 54.8348 94.7529 54.8048 94.7229C54.7648 94.6929 54.6848 94.6779 54.5648 94.6779H54.3548V92.9679H56.1398C56.5098 92.9679 56.6948 93.2729 56.6948 93.8829C57.0148 93.2229 57.4698 92.8929 58.0598 92.8929H58.1198C58.4698 92.8929 58.7398 93.0279 58.9298 93.2979C59.1198 93.5779 59.2148 93.9079 59.2148 94.2879Z" fill="white"/>
<path d="M42.6535 91.0587L44.4577 91.7153C44.702 91.8043 44.8779 91.9641 44.9855 92.1948C45.0803 92.4315 45.0781 92.6861 44.9789 92.9586L43.1679 97.9343L44.0277 98.2472L43.4172 99.9246L42.5574 99.6116L41.6442 102.121L39.8541 101.469L40.7673 98.9601L39.8934 98.642L40.5039 96.9646L41.3778 97.2827L42.7937 93.3924C42.8348 93.2796 42.8498 93.1946 42.8387 93.1374C42.8182 93.0767 42.7516 93.0259 42.6388 92.9848L42.0327 92.7642L42.6535 91.0587Z" fill="white"/>
<path d="M32.6673 86.4955L28.6354 93.4708L27.1876 92.2559L29.6376 88.4961L26.3718 91.5714L24.9584 90.3854L32.4758 84.0635C33.1191 83.5458 33.6628 83.4734 34.1071 83.8462L35.44 84.9647L34.2927 86.3321L33.6837 85.821C33.5917 85.7439 33.515 85.7187 33.4534 85.7454C33.3907 85.7579 33.2964 85.8159 33.1705 85.9192L32.9451 86.1412C32.8205 86.2586 32.7279 86.3767 32.6673 86.4955Z" fill="white"/>
<path d="M13.3086 82.4196L12.6261 81.2374L15.4891 79.8963L15.2266 79.4416L12.3636 80.7828L11.6736 79.5877L14.5441 78.2595L14.0941 77.4801L15.4196 76.836L15.8771 77.6284L17.1582 77.0273L16.7082 76.2479L18.0338 75.6038L18.4988 76.4092L21.8779 74.822L22.5529 75.9912L19.1738 77.5784L19.4438 78.046L22.8229 76.4588L23.4979 77.628L20.1188 79.2152L20.5763 80.0076L19.2357 80.6257L18.7857 79.8462L17.5046 80.4473L17.9621 81.2397L16.6216 81.8578L16.1716 81.0784L13.3086 82.4196ZM16.8296 79.2782L18.1107 78.6771L17.8407 78.2094L16.5596 78.8105L16.8296 79.2782Z" fill="white"/>
<path d="M6.53208 67.9657L6.19868 66.0748L10.1281 65.382C9.91374 65.3182 9.67161 65.1832 9.4017 64.977C9.13178 64.7707 8.9699 64.5149 8.91607 64.2096L8.90044 64.121C8.8362 63.7566 8.92371 63.4467 9.16299 63.1913C9.40053 62.926 9.71134 62.7595 10.0954 62.6918L15.0884 61.8114C15.5414 61.7315 15.9753 61.8022 16.39 62.0236C16.803 62.2351 17.046 62.5476 17.1189 62.9613L17.1241 62.9908C17.1693 63.2468 17.1411 63.4904 17.0397 63.7216C16.9285 63.9544 16.8175 64.1314 16.7069 64.2524C16.5846 64.3654 16.4126 64.5125 16.1907 64.6938C16.7549 64.7263 17.1207 64.7278 17.2881 64.6983L17.5225 66.0278L6.53208 67.9657ZM11.2951 65.1762L15.1654 64.4938C15.51 64.433 15.6615 64.2844 15.6199 64.0481C15.5782 63.8117 15.3949 63.7222 15.0699 63.7795L11.17 64.4671C10.8254 64.5279 10.6747 64.6814 10.7181 64.9276C10.7581 65.1541 10.9504 65.237 11.2951 65.1762Z" fill="white"/>
<path d="M8.05251 49.3069L8.11503 48.9524C8.34945 47.6229 9.14126 47.0771 10.4904 47.315L12.8392 47.7291L12.3938 50.2552L14.1221 50.5599C14.4471 50.6172 14.6313 50.5228 14.6747 50.2766C14.7147 50.0501 14.5722 49.9082 14.2472 49.8509L13.0654 49.6425L13.3858 47.8255L14.8334 48.0808C15.4342 48.1867 15.864 48.4554 16.123 48.887C16.382 49.3185 16.4603 49.8248 16.3579 50.4058L16.2954 50.7604C16.1877 51.3709 15.9392 51.8298 15.55 52.1368C15.1625 52.4341 14.6684 52.5297 14.0677 52.4238L9.69511 51.6528C9.11407 51.5503 8.66509 51.3036 8.34817 50.9127C8.03298 50.5118 7.93443 49.9766 8.05251 49.3069ZM10.0155 49.8358L10.9757 50.0051L11.1111 49.237L10.1509 49.0677C9.79641 49.0052 9.59657 49.1019 9.55142 49.358C9.52363 49.5155 9.54972 49.6268 9.62967 49.6916C9.69977 49.7548 9.82838 49.8028 10.0155 49.8358Z" fill="white"/>
<path d="M18.2424 36.4225L16.5407 35.44C16.5333 35.7128 16.559 35.9182 16.6179 36.0562C16.6878 36.2351 16.8354 36.3896 17.0605 36.5196L17.9049 37.0071C18.182 37.1671 18.3731 37.1561 18.4781 36.9743C18.5981 36.7664 18.5195 36.5825 18.2424 36.4225ZM17.58 38.9499L16.0601 38.0724C15.4019 37.6924 15.0656 37.1749 15.0512 36.5199C15.0382 36.3623 15.0545 36.0542 15.0999 35.5955C15.1367 35.1317 15.151 34.857 15.1427 34.7714C15.1394 34.6771 15.0728 34.5925 14.9429 34.5175L14.5661 34.3C14.4189 34.215 14.3068 34.1791 14.2299 34.1925C14.1529 34.2058 14.0844 34.2644 14.0244 34.3683L13.9944 34.4202C13.8844 34.6108 13.955 34.7785 14.2061 34.9235L14.8946 35.321L14.0396 36.8019L13.0783 36.2469C12.6973 36.0269 12.4425 35.7182 12.3141 35.3207C12.1856 34.9232 12.2964 34.4214 12.6464 33.8152L12.8189 33.5164C13.1989 32.8582 13.5981 32.4767 14.0166 32.3719C14.4264 32.2621 14.8781 32.3497 15.3717 32.6347L19.2299 34.8622C19.3078 34.9072 19.3673 34.9242 19.4083 34.9132C19.4542 34.8936 19.5072 34.8318 19.5672 34.7279L19.6722 34.546L21.1531 35.401L20.2606 36.9469C20.0756 37.2673 19.719 37.275 19.1907 36.97C19.6023 37.5771 19.6606 38.1362 19.3656 38.6471L19.3356 38.6991C19.1606 39.0022 18.9087 39.1685 18.5798 39.1981C18.2423 39.2226 17.9091 39.1399 17.58 38.9499Z" fill="white"/>
<path d="M28.7487 25.9372L27.2779 27.1714C27.0787 27.3385 26.8523 27.411 26.5987 27.3888C26.3464 27.3525 26.127 27.2233 25.9406 27.0011L22.537 22.9449L21.8361 23.5331L20.6887 22.1657L21.3896 21.5775L19.6734 19.5322L21.1327 18.3077L22.849 20.353L23.5614 19.7552L24.7088 21.1226L23.9963 21.7204L26.6575 24.8918C26.7346 24.9838 26.8007 25.0392 26.8559 25.0583C26.9186 25.0708 26.996 25.0386 27.0879 24.9614L27.582 24.5468L28.7487 25.9372Z" fill="white"/>
<path d="M37.6932 19.5709L33.6684 12.5915L35.4444 11.9451L37.4756 15.9468L36.4452 11.5809L38.1789 10.9498L39.8952 20.6211C40.0219 21.437 39.8127 21.9441 39.2677 22.1425L37.6326 22.7376L37.0221 21.0602L37.7692 20.7883C37.8819 20.7473 37.9422 20.6934 37.9498 20.6268C37.9703 20.5661 37.9673 20.4555 37.9408 20.2949L37.8612 19.9886C37.8219 19.822 37.7659 19.6828 37.6932 19.5709Z" fill="white"/>
</svg>
