<svg width="37" height="82" viewBox="0 0 37 82" fill="none" xmlns="http://www.w3.org/2000/svg">
<path d="M27.0317 74.6493C28.6674 73.003 30.0867 71.5992 30.8759 70.8718L31.0986 70.6357C32.4988 69.2894 34.1282 67.5729 35.0956 66.2074C35.5093 65.5502 35.9039 64.8611 36.2991 64.1719C35.9612 64.3378 35.6429 64.4846 35.3565 64.6058C35.923 64.0635 36.4831 63.5211 36.5976 63.2148C37.5466 61.8238 36.6231 62.2258 35.8218 62.3215C35.3444 62.4938 35.5411 61.8174 34.8792 62.1683C35.2547 61.8046 35.4393 61.626 35.8148 61.2686C35.7066 61.0772 34.7583 62.4746 34.7774 61.9769C35.1853 61.6834 35.4902 61.1921 35.8593 60.8347C35.5347 60.7646 34.5164 62.0343 34.3764 61.7791C34.5291 61.5366 35.6748 61.0134 35.5036 60.7007C35.4647 60.6369 35.0892 60.9943 34.9047 61.1729C35.9612 59.967 36.3494 59.1119 35.051 59.8776C35.4138 59.5267 36.0248 59.1247 36.3685 58.7099H36.3621C36.1903 58.8694 35.8784 59.0928 35.6875 59.2651L36.2667 58.7035C36.203 58.7035 36.1267 58.7099 36.0566 58.7163C35.8657 58.8439 35.6748 58.9843 35.5093 59.1438L35.9421 58.7291C35.7575 58.7546 35.5602 58.7993 35.3502 58.8631C34.6825 59.214 33.9691 59.4692 33.689 59.7372C31.3532 61.8493 29.0429 63.9996 26.8089 66.2074C26.8917 66.3031 27.1017 66.2712 26.9617 66.5009C26.4716 67.1645 25.7015 67.3241 25.205 67.9941L25.3132 68.1791C24.7977 68.562 24.2567 68.9576 23.7094 69.3596C23.633 69.4425 23.5503 69.5255 23.4739 69.6084C23.5312 42.7132 23.1238 27.845 22.8947 1.19875C22.749 -0.721751 22.4619 0.241628 22.1691 0.241628C22.1691 4.0896 22.3155 7.93679 22.0291 10.8211C22.0291 11.7844 21.4506 9.85698 21.1578 10.8211V14.6683C20.7244 15.6324 20.2916 13.705 19.8595 14.6683C19.4259 15.6324 19.7124 19.4796 19.4259 20.4367C19.1395 23.3273 18.9933 18.516 18.9933 15.6324C18.7069 16.5895 18.9933 13.7049 18.7069 13.7049C18.1276 13.7049 17.5484 13.7049 17.1158 17.5529C16.9694 18.516 16.5365 17.5529 16.2509 17.5529C16.2509 29.0958 16.2509 29.2368 16.8229 40.7734C17.2558 50.3957 16.6385 62.028 17.1158 71.5546C17.1347 71.8353 17.1411 72.1416 17.1411 72.4606C16.142 71.6822 15.1171 70.8782 14.0735 70.0614C13.3478 69.602 12.6161 69.1426 11.9858 68.6321C11.0821 67.8409 10.1018 66.6605 9.29355 65.8182C8.89901 66.4627 6.63315 64.7079 6.51229 65.6331C5.9713 65.0716 5.16306 64.223 4.97862 64.3315C4.40555 64.6441 3.47645 64.7271 1.75153 63.5338C1.12156 63.0234 0.427694 61.9578 0.135051 61.8429C-0.322626 61.6643 0.567907 62.8958 0.109467 62.7171C4.19571 67.139 8.47264 71.0441 12.7431 75.332C13.087 75.5809 13.7552 76.1679 14.6271 76.9783C14.8435 77.1825 15.0791 77.393 15.3208 77.6227C15.7663 78.0566 16.2374 78.5097 16.7282 78.9819C16.8421 79.0967 16.9567 79.2052 17.0775 79.3264C17.18 79.4285 17.2938 79.537 17.4022 79.6455C17.4529 79.6965 17.5038 79.7476 17.5613 79.7986C18.2803 80.5069 19.0378 81.2407 19.8142 82C20.979 80.8132 22.2137 79.5561 23.4357 78.3119C24.6641 77.0548 25.8861 75.8106 27.0317 74.6493Z" fill="#FF0262"/>
</svg>
