<?xml version="1.0" encoding="UTF-8" standalone="no"?>
<!DOCTYPE svg PUBLIC "-//W3C//DTD SVG 1.1//EN" "http://www.w3.org/Graphics/SVG/1.1/DTD/svg11.dtd">
<svg fill="#ff76ab" xmlns="http://www.w3.org/2000/svg" version="1.1" viewBox="0.00 0.00 128.00 128.00">
<path  d="
  M 98.72 58.67
  Q 99.25 58.67 98.88 58.30
  Q 90.57 49.94 82.11 41.62
  C 76.36 35.97 84.12 28.63 89.13 33.66
  Q 102.69 47.28 116.04 60.40
  C 118.17 62.49 117.85 65.85 115.78 67.85
  Q 102.99 80.26 89.76 93.79
  Q 88.33 95.26 86.67 95.77
  C 83.05 96.90 79.18 93.28 80.18 89.51
  Q 80.60 87.95 82.33 86.21
  Q 90.49 78.00 98.77 69.82
  Q 99.29 69.30 98.56 69.31
  Q 58.89 69.33 15.98 69.31
  C 8.85 69.31 8.96 58.70 15.89 58.70
  Q 56.95 58.70 98.72 58.67
  Z"
/>
</svg>
