<?xml version="1.0" encoding="UTF-8" standalone="no"?>
<!DOCTYPE svg PUBLIC "-//W3C//DTD SVG 1.1//EN" "http://www.w3.org/Graphics/SVG/1.1/DTD/svg11.dtd">
<svg xmlns="http://www.w3.org/2000/svg" version="1.1" viewBox="0.00 0.00 128.00 128.00">
<path stroke="#ea9298" stroke-width="2.00" fill="none" stroke-linecap="butt" vector-effect="non-scaling-stroke" d="
  M 57.95 64.45
  Q 51.09 71.22 45.37 77.02
  C 41.41 81.04 47.07 86.45 50.81 82.79
  Q 57.63 76.12 63.77 69.86
  A 0.33 0.33 0.0 0 1 64.24 69.86
  Q 70.56 76.18 76.84 82.49
  C 81.00 86.67 86.65 81.03 82.52 76.88
  Q 76.43 70.75 69.87 64.25
  A 0.34 0.34 0.0 0 1 69.87 63.77
  Q 76.41 57.24 82.50 51.14
  C 86.53 47.12 80.94 41.41 76.83 45.52
  Q 70.38 51.98 64.24 58.13
  A 0.33 0.33 0.0 0 1 63.78 58.13
  Q 57.44 51.80 51.13 45.49
  C 47.11 41.47 41.51 47.07 45.39 50.99
  Q 51.49 57.15 57.95 63.55
  Q 58.41 64.00 57.95 64.45"
/>
<path fill="#e63946" d="
  M 117.28 63.99
  A 53.28 53.28 0.0 0 1 64.00 117.27
  A 53.28 53.28 0.0 0 1 10.72 63.99
  A 53.28 53.28 0.0 0 1 64.00 10.71
  A 53.28 53.28 0.0 0 1 117.28 63.99
  Z
  M 57.95 64.45
  Q 51.09 71.22 45.37 77.02
  C 41.41 81.04 47.07 86.45 50.81 82.79
  Q 57.63 76.12 63.77 69.86
  A 0.33 0.33 0.0 0 1 64.24 69.86
  Q 70.56 76.18 76.84 82.49
  C 81.00 86.67 86.65 81.03 82.52 76.88
  Q 76.43 70.75 69.87 64.25
  A 0.34 0.34 0.0 0 1 69.87 63.77
  Q 76.41 57.24 82.50 51.14
  C 86.53 47.12 80.94 41.41 76.83 45.52
  Q 70.38 51.98 64.24 58.13
  A 0.33 0.33 0.0 0 1 63.78 58.13
  Q 57.44 51.80 51.13 45.49
  C 47.11 41.47 41.51 47.07 45.39 50.99
  Q 51.49 57.15 57.95 63.55
  Q 58.41 64.00 57.95 64.45
  Z"
/>
<path fill="#edebea" d="
  M 57.95 63.55
  Q 51.49 57.15 45.39 50.99
  C 41.51 47.07 47.11 41.47 51.13 45.49
  Q 57.44 51.80 63.78 58.13
  A 0.33 0.33 0.0 0 0 64.24 58.13
  Q 70.38 51.98 76.83 45.52
  C 80.94 41.41 86.53 47.12 82.50 51.14
  Q 76.41 57.24 69.87 63.77
  A 0.34 0.34 0.0 0 0 69.87 64.25
  Q 76.43 70.75 82.52 76.88
  C 86.65 81.03 81.00 86.67 76.84 82.49
  Q 70.56 76.18 64.24 69.86
  A 0.33 0.33 0.0 0 0 63.77 69.86
  Q 57.63 76.12 50.81 82.79
  C 47.07 86.45 41.41 81.04 45.37 77.02
  Q 51.09 71.22 57.95 64.45
  Q 58.41 64.00 57.95 63.55
  Z"
/>
</svg>
